<?xml version="1.0" encoding="UTF-8"?>
<svg width="60px" height="60px" viewBox="0 0 60 60" version="1.1" xmlns="http://www.w3.org/2000/svg" xmlns:xlink="http://www.w3.org/1999/xlink">
    <title>Artboard</title>
    <g id="Artboard" stroke="none" stroke-width="1" fill="none" fill-rule="evenodd">
        <rect fill="#FFFFFF" x="0" y="0" width="60" height="60"></rect>
        <path d="M23.4565526,35.5671642 C22.6917488,35.9460111 21.7616598,35.664293 21.3409718,34.9263682 L21.2365978,34.6995025 L16.8689471,25.1870647 C16.8202761,25.0821179 16.7942949,24.9682344 16.7926737,24.8527363 C16.7973268,24.5547969 16.9694227,24.2843825 17.238657,24.1519627 C17.5078912,24.019543 17.8291741,24.0472946 18.0712553,24.2238806 L23.2277327,27.8636816 C23.8591218,28.2755077 24.6502384,28.3656131 25.3593711,28.1064677 L49.6082629,17.39801 C45.2606841,12.319403 38.1030359,9 30.0020072,9 C16.7545371,9 6,17.879602 6,28.8328358 C6,34.8029851 9.23358702,40.1880597 14.2937192,43.8238806 C14.714946,44.1231665 14.9645977,44.6056072 14.9641214,45.119403 C14.95946,45.2909226 14.931095,45.4609981 14.8798194,45.6248756 L13.7979426,49.6248756 C13.7304684,49.8117118 13.6873001,50.0063162 13.6694823,50.2039801 C13.6694823,50.6436098 14.0289426,51 14.4723593,51 C14.6369068,50.9935543 14.796546,50.9426308 14.9340135,50.8527363 L20.1888434,47.8457711 C20.5730543,47.6129653 21.0131821,47.4865214 21.4634106,47.479602 C21.7022273,47.4799364 21.9396661,47.5154828 22.1679351,47.5850746 C24.7134475,48.3072512 27.3483084,48.6729813 29.9959856,48.6716418 C43.2434557,48.6716418 54,39.7920398 54,28.838806 C53.9888084,25.580254 53.0427165,22.3921187 51.2722255,19.6467662 L23.6351928,35.4676617 L23.4565526,35.5671642 Z" id="Fill-29" fill="#1AAD19" fill-rule="nonzero"></path>
    </g>
</svg>